<svg width="30" height="30" viewBox="0 0 30 30" fill="none" xmlns="http://www.w3.org/2000/svg">
<path d="M18.1941 6.13916C18.4427 5.45488 18.5979 4.86509 18.5979 4.30514C18.5979 4.21165 18.5671 4.14998 18.5671 4.05649C18.5671 3.963 18.5362 3.83868 18.5044 3.71436C16.9499 4.05649 15.8628 4.73977 15.1785 5.73436C14.4942 6.69812 14.1531 7.84786 14.1212 9.18459C14.6812 9.12193 15.1467 9.02943 15.4888 8.93594C15.9553 8.78078 16.4526 8.46948 16.9499 8.00302C17.5098 7.44306 17.9444 6.75978 18.1931 6.13816L18.1941 6.13916ZM16.4217 9.24724C15.4888 9.55855 14.8364 9.68287 14.4942 9.68287C14.2147 9.68287 13.624 9.55855 12.6602 9.3099C11.7273 9.03042 10.9505 8.87427 10.2672 8.87427C8.74451 8.87427 7.46945 9.52672 6.44403 10.8326C5.44944 12.1385 4.95215 13.7855 4.95215 15.8364C4.95215 18.0434 5.6046 20.2812 6.91049 22.5807C8.24722 24.8812 9.61477 26.0001 10.9515 26.0001C11.3871 26.0001 11.9461 25.8449 12.7229 25.5644C13.438 25.285 14.0596 25.1288 14.6185 25.1288C15.1775 25.1288 15.8618 25.2531 16.6385 25.5326C17.4471 25.8121 18.0688 25.9364 18.5342 25.9364C19.684 25.9364 20.8347 25.0662 21.9845 23.3565C22.3574 22.7965 22.6996 22.2067 22.979 21.6468C23.2277 21.1186 23.4455 20.5587 23.6315 20.0306C22.7921 19.7819 22.077 19.1911 21.4872 18.3209C20.8964 17.4198 20.5861 16.4252 20.5861 15.3371C20.5861 14.3117 20.8655 13.4096 21.4255 12.5712C21.7676 12.1355 22.2958 11.5766 22.98 10.9858C22.7622 10.7063 22.5136 10.4258 22.2958 10.209C22.0471 9.99119 21.8293 9.80521 21.6115 9.64906C20.7412 9.0891 19.7775 8.77879 18.7212 8.77879C18.0996 8.77879 17.3228 8.96578 16.4207 9.24525L16.4217 9.24724Z" fill="#060504"/>
</svg>
