<svg width="24" height="24" viewBox="0 0 24 24" fill="none" xmlns="http://www.w3.org/2000/svg">
<path d="M6.51657 10.6554C6.19037 10.8729 5.78203 10.9275 5.4101 10.8036C3.89263 10.2977 2.70188 9.10699 2.19606 7.58953C2.07208 7.2176 2.12677 6.80926 2.34424 6.48305L2.4678 6.29772C2.78746 5.81823 3.13613 5.36025 3.51145 4.92615L2.29246 3.70717L3.70668 2.29295L4.92567 3.51194C5.35976 3.13662 5.81774 2.78795 6.29723 2.46829L6.48257 2.34473C6.80877 2.12726 7.21711 2.07257 7.58904 2.19655C9.1065 2.70237 10.2973 3.89312 10.8031 5.41058C10.9271 5.78252 10.8724 6.19085 10.6549 6.51706L10.5313 6.7024C10.2117 7.18189 9.86301 7.63987 9.48769 8.07396L14.9483 13.5346C15.4695 13.0761 16.0218 12.6519 16.6018 12.2652L16.7129 12.1912C16.8938 12.0706 17.1202 12.0403 17.3264 12.109C19.0092 12.6699 20.3297 13.9904 20.8906 15.6732C20.9594 15.8794 20.929 16.1059 20.8085 16.2867L20.7344 16.3978C20.3477 16.9779 19.9235 17.5301 19.4651 18.0513L20.7067 19.2929L19.2925 20.7072L18.0508 19.4655C17.5296 19.924 16.9774 20.3482 16.3973 20.7349L16.2862 20.8089C16.1054 20.9295 15.8789 20.9599 15.6727 20.8911C13.9899 20.3302 12.6694 19.0097 12.1085 17.3269C12.0398 17.1207 12.0701 16.8943 12.1907 16.7134L12.2647 16.6023C12.6514 16.0223 13.0756 15.47 13.5341 14.9488L8.07347 9.48818C7.63938 9.86349 7.1814 10.2122 6.70191 10.5318L6.51657 10.6554Z" fill="#676C75"/>
</svg>
