<svg width="30" height="30" viewBox="0 0 30 30" fill="none" xmlns="http://www.w3.org/2000/svg">
<path d="M14.8405 3.71452C14.8848 3.71461 14.929 3.71471 14.9746 3.7148C15.6097 3.71696 16.2328 3.72787 16.8566 3.85852C16.899 3.86716 16.9414 3.8758 16.985 3.8847C19.0883 4.32467 21.0006 5.27745 22.5516 6.77122C22.5946 6.81244 22.5946 6.81244 22.6384 6.85449C23.0509 7.25203 23.4309 7.65622 23.7688 8.11888C23.8061 8.16892 23.8434 8.21896 23.8807 8.269C24.1432 8.6251 24.3762 8.99522 24.5948 9.3796C24.6107 9.40707 24.6265 9.43454 24.6428 9.46283C25.5788 11.0981 26.0061 12.9554 26.0022 14.8273C26.0022 14.8931 26.0022 14.8931 26.0022 14.9603C26.0004 15.678 25.961 16.37 25.8121 17.0743C25.8025 17.1196 25.793 17.1649 25.7831 17.2116C25.3919 19.0049 24.5781 20.682 23.3776 22.0737C23.35 22.1061 23.3224 22.1385 23.294 22.1719C22.7805 22.759 22.2262 23.3099 21.5952 23.7692C21.5452 23.8064 21.4952 23.8437 21.4452 23.8809C21.0892 24.1435 20.7195 24.3775 20.3344 24.5952C20.3037 24.6127 20.273 24.6301 20.2413 24.6482C19.2362 25.214 18.1429 25.5937 17.0142 25.826C16.9833 25.8324 16.9524 25.8388 16.9206 25.8454C16.2406 25.9752 15.5608 26.0026 14.8704 25.9999C14.8284 25.9998 14.7863 25.9997 14.743 25.9997C14.1199 25.9977 13.5136 25.9756 12.9006 25.8559C12.8616 25.8489 12.8226 25.8419 12.7824 25.8347C10.6658 25.4517 8.70845 24.4325 7.16211 22.9432C7.13345 22.9157 7.10478 22.8882 7.07525 22.8599C6.66277 22.4624 6.28282 22.0582 5.94487 21.5955C5.90757 21.5455 5.87026 21.4954 5.83296 21.4454C5.57046 21.0893 5.33751 20.7192 5.11888 20.3348C5.10303 20.3073 5.08719 20.2799 5.07086 20.2516C4.42175 19.1175 4.00992 17.8423 3.81469 16.5527C3.80698 16.504 3.79927 16.4554 3.79133 16.4053C3.71823 15.8957 3.71221 15.3904 3.71416 14.8762C3.7143 14.8097 3.7143 14.8097 3.71444 14.7418C3.7166 14.1059 3.72734 13.482 3.85816 12.8574C3.8668 12.8151 3.87544 12.7727 3.88433 12.729C4.32431 10.6257 5.27709 8.71341 6.77086 7.16248C6.79834 7.13381 6.82582 7.10515 6.85413 7.07562C7.25167 6.66313 7.65585 6.28318 8.11852 5.94523C8.16856 5.90793 8.2186 5.87063 8.26864 5.83332C8.62467 5.57085 8.9943 5.33684 9.37924 5.11924C9.40998 5.10176 9.44073 5.08427 9.4724 5.06626C10.4782 4.50001 11.5724 4.11967 12.7022 3.88841C12.7335 3.88201 12.7647 3.8756 12.7969 3.869C13.4771 3.73972 14.1498 3.71189 14.8405 3.71452Z" fill="#1877F2"/>
<path d="M17.3744 8.06467C17.4182 8.06483 17.4182 8.06483 17.4628 8.06499C17.9884 8.06721 18.5072 8.10038 19.0291 8.16248C19.0991 8.17036 19.1691 8.17823 19.2392 8.18609C19.7067 8.24046 19.7067 8.24046 19.8116 8.2929C19.8116 9.19671 19.8116 10.1005 19.8116 11.0317C18.9557 11.0426 18.9557 11.0426 18.6893 11.0447C18.0881 11.0535 17.509 11.1094 17.0434 11.5327C16.7498 11.843 16.6358 12.2518 16.6292 12.671C16.6283 12.7204 16.6274 12.7698 16.6265 12.8207C16.6258 12.8721 16.6251 12.9236 16.6243 12.9766C16.6231 13.0481 16.6231 13.0481 16.6219 13.121C16.6189 13.2985 16.6163 13.4761 16.6136 13.6537C16.6074 14.0509 16.6011 14.4481 16.5946 14.8573C17.6132 14.8573 18.6318 14.8573 19.6812 14.8573C19.6323 15.3953 19.6323 15.3953 19.5976 15.6132C19.586 15.6863 19.586 15.6863 19.5743 15.7608C19.5661 15.8117 19.5579 15.8627 19.5494 15.9151C19.5366 15.9957 19.5366 15.9957 19.5236 16.0779C19.5011 16.2192 19.4786 16.3605 19.4559 16.5019C19.4329 16.6456 19.4101 16.7893 19.3872 16.9331C19.2627 17.7163 19.2627 17.7163 19.203 18.0743C18.3422 18.0743 17.4815 18.0743 16.5946 18.0743C16.5946 20.6566 16.5946 23.2389 16.5946 25.8995C15.6926 25.9997 15.6926 25.9997 15.3432 25.998C15.3036 25.9981 15.264 25.9981 15.2232 25.9982C15.141 25.9983 15.0587 25.9981 14.9764 25.9978C14.8529 25.9973 14.7295 25.9978 14.606 25.9983C14.1202 25.9987 13.6398 25.9824 13.1602 25.8995C13.1168 25.856 13.1168 25.856 13.1114 25.7291C13.1115 25.6718 13.1115 25.6144 13.1115 25.5554C13.1115 25.5236 13.1115 25.4917 13.1114 25.459C13.1114 25.3516 13.1116 25.2442 13.1118 25.1367C13.1118 25.0601 13.1118 24.9834 13.1118 24.9067C13.1118 24.6979 13.1121 24.4891 13.1124 24.2803C13.1126 24.0623 13.1127 23.8443 13.1127 23.6263C13.1128 23.2132 13.1132 22.8001 13.1136 22.3871C13.1141 21.9169 13.1144 21.4468 13.1146 20.9766C13.115 20.0092 13.1158 19.0418 13.1168 18.0743C12.1843 18.0743 11.2518 18.0743 10.291 18.0743C10.291 17.0127 10.291 15.9511 10.291 14.8573C11.2235 14.8573 12.156 14.8573 13.1168 14.8573C13.1145 14.5367 13.1145 14.5367 13.1122 14.2097C13.1115 14.0726 13.1109 13.9355 13.1104 13.7984C13.1096 13.5817 13.1087 13.3651 13.1069 13.1485C13.1055 12.9735 13.1047 12.7984 13.1044 12.6234C13.1042 12.5573 13.1037 12.4912 13.103 12.4251C13.0966 11.8107 13.1463 11.1781 13.3695 10.5997C13.3807 10.5694 13.3919 10.5392 13.4035 10.508C13.7125 9.69956 14.2732 9.02302 15.0296 8.59721C15.0634 8.57766 15.0972 8.5581 15.132 8.53795C15.8284 8.16115 16.5934 8.05908 17.3744 8.06467Z" fill="#FEFEFE"/>
</svg>
