<svg width="24" height="24" viewBox="0 0 24 24" fill="none" xmlns="http://www.w3.org/2000/svg">
<path fill-rule="evenodd" clip-rule="evenodd" d="M6.68565 3.47813C10.159 2.48578 13.8411 2.48583 17.3146 3.47813C18.8656 3.92128 20.0783 5.13417 20.5216 6.68516C21.5139 10.1586 21.5139 13.8406 20.5216 17.3141C20.0784 18.8652 18.8657 20.0779 17.3146 20.5211C13.8411 21.5134 10.1591 21.5135 6.68565 20.5211C5.13465 20.0778 3.92177 18.8651 3.47862 17.3141C2.48632 13.8407 2.48627 10.1586 3.47862 6.68516C3.92182 5.13416 5.13465 3.92133 6.68565 3.47813ZM16.7657 5.40098C13.6513 4.5112 10.3489 4.51114 7.23448 5.40098C6.34812 5.65439 5.65488 6.34763 5.40147 7.23399C4.51163 10.3484 4.51169 13.6508 5.40147 16.7652C5.65483 17.6516 6.34813 18.3448 7.23448 18.5982C10.349 19.4881 13.6512 19.4881 16.7657 18.5982C17.6522 18.3449 18.3453 17.6517 18.5987 16.7652C19.4886 13.6508 19.4886 10.3485 18.5987 7.23399C18.3453 6.34764 17.6521 5.65434 16.7657 5.40098Z" fill="white"/>
<path fill-rule="evenodd" clip-rule="evenodd" d="M6.68553 3.47873C10.1592 2.48626 13.8413 2.48626 17.315 3.47873C18.8661 3.92191 20.0786 5.13439 20.5218 6.68553C21.5142 10.1592 21.5142 13.8413 20.5218 17.315C20.0786 18.8661 18.8661 20.0786 17.315 20.5218C13.8413 21.5142 10.1592 21.5142 6.68553 20.5218C5.13439 20.0786 3.92191 18.8661 3.47873 17.315C2.48626 13.8413 2.48626 10.1592 3.47873 6.68553C3.92191 5.13439 5.13439 3.92191 6.68553 3.47873ZM6.82877 7.2577C6.93863 7.09292 7.10945 6.97852 7.30365 6.93968L7.85821 6.82877C10.5926 6.2819 13.4081 6.2819 16.1425 6.82877L16.697 6.93968C16.8912 6.97852 17.0621 7.09292 17.1719 7.2577C17.6736 8.01019 17.6736 8.9905 17.1719 9.74299C17.0621 9.90777 16.8912 10.0222 16.697 10.061L16.1425 10.1719C15.1039 10.3796 14.0535 10.5085 13.0003 10.5584V9.00034H11.0003V10.5584C9.94719 10.5085 8.89684 10.3796 7.85821 10.1719L7.30365 10.061C7.10945 10.0222 6.93863 9.90777 6.82877 9.74299C6.32712 8.9905 6.32712 8.01019 6.82877 7.2577Z" fill="white"/>
</svg>
