<svg width="22" height="20" viewBox="0 0 22 20" fill="none" xmlns="http://www.w3.org/2000/svg">
<path d="M0.75 9.75C0.75 5.50736 0.75 3.38604 2.21447 2.06802C3.67893 0.75 6.03596 0.75 10.75 0.75C15.464 0.75 17.8211 0.75 19.2855 2.06802C20.75 3.38604 20.75 5.50736 20.75 9.75C20.75 13.9926 20.75 16.114 19.2855 17.432C17.8211 18.75 15.464 18.75 10.75 18.75C6.03596 18.75 3.67893 18.75 2.21447 17.432C0.75 16.114 0.75 13.9926 0.75 9.75Z" stroke="black" stroke-width="1.5" stroke-linecap="round" stroke-linejoin="round"/>
<path d="M3.75 14.25C4.95831 11.6689 9.46218 11.4991 10.75 14.25M9.25 7.25C9.25 8.35457 8.35457 9.25 7.25 9.25C6.14543 9.25 5.25 8.35457 5.25 7.25C5.25 6.14543 6.14543 5.25 7.25 5.25C8.35457 5.25 9.25 6.14543 9.25 7.25Z" stroke="black" stroke-width="1.5" stroke-linecap="round"/>
<path d="M13.75 7.75H17.75" stroke="black" stroke-width="1.5" stroke-linecap="round" stroke-linejoin="round"/>
<path d="M13.75 11.75H17.75" stroke="black" stroke-width="1.5" stroke-linecap="round" stroke-linejoin="round"/>
</svg>
