<svg width="50" height="50" viewBox="0 0 50 50" fill="none" xmlns="http://www.w3.org/2000/svg">
<rect width="50" height="50" rx="25" fill="#FDF2F4"/>
<rect x="0.5" y="0.5" width="49" height="49" rx="24.5" stroke="#F7869A" stroke-opacity="0.3"/>
<path opacity="0.4" d="M34.8606 18.3918C35.2875 19.4963 34.6888 20.2526 33.5301 20.9975C32.5951 21.5986 31.4039 22.2498 30.1417 23.363C28.9044 24.4543 27.6968 25.7687 26.6237 27.0625C25.5549 28.351 24.6465 29.586 24.0046 30.5005C23.5898 31.0914 23.011 31.9729 23.011 31.9729C22.6028 32.6187 21.8689 33.0096 21.0821 32.9998C20.295 32.99 19.5721 32.5812 19.1816 31.9251C18.1833 30.248 17.413 29.5857 17.0589 29.3478C16.1116 28.7112 15 28.6171 15 27.1335C15 25.9554 15.9949 25.0003 17.2222 25.0003C18.0886 25.0323 18.894 25.373 19.6076 25.8526C20.0637 26.1591 20.5469 26.5645 21.0495 27.0981C21.6393 26.2936 22.3502 25.3653 23.147 24.4047C24.3042 23.0097 25.6701 21.5131 27.1349 20.2212C28.5748 18.9511 30.2396 17.7623 32.0042 17.1338C33.1549 16.724 34.4337 17.2872 34.8606 18.3918Z" fill="#F7869A" stroke="#F7869A" stroke-width="1.5" stroke-linecap="round" stroke-linejoin="round"/>
<path d="M34.8606 18.3918C35.2875 19.4963 34.6888 20.2526 33.5301 20.9975C32.5951 21.5986 31.4039 22.2498 30.1417 23.363C28.9044 24.4543 27.6968 25.7687 26.6237 27.0625C25.5549 28.351 24.6465 29.586 24.0046 30.5005C23.5898 31.0914 23.011 31.9729 23.011 31.9729C22.6028 32.6187 21.8689 33.0096 21.0821 32.9998C20.295 32.99 19.5721 32.5812 19.1816 31.9251C18.1833 30.248 17.413 29.5857 17.0589 29.3478C16.1116 28.7112 15 28.6171 15 27.1335C15 25.9554 15.9949 25.0003 17.2222 25.0003C18.0886 25.0323 18.894 25.373 19.6076 25.8526C20.0637 26.1591 20.5469 26.5645 21.0495 27.0981C21.6393 26.2936 22.3502 25.3653 23.147 24.4047C24.3042 23.0097 25.6701 21.5131 27.1349 20.2212C28.5748 18.9511 30.2396 17.7623 32.0042 17.1338C33.1549 16.724 34.4337 17.2872 34.8606 18.3918Z" stroke="#F7869A" stroke-width="1.5" stroke-linecap="round" stroke-linejoin="round"/>
</svg>
