<svg width="24" height="24" viewBox="0 0 24 24" fill="none" xmlns="http://www.w3.org/2000/svg">
<path fill-rule="evenodd" clip-rule="evenodd" d="M8.41878 1.58297C10.7896 1.18784 13.2095 1.18784 15.5803 1.58297C17.5501 1.91127 19.0621 3.50804 19.2827 5.49281L19.356 6.15299C19.4044 6.58863 19.4294 6.81355 19.4523 7.03845C19.7881 10.3376 19.7881 13.6623 19.4523 16.9615C19.4294 17.1864 19.4044 17.4113 19.356 17.8469L19.2827 18.5071C19.0621 20.4919 17.5501 22.0887 15.5803 22.417C13.2095 22.8121 10.7896 22.8121 8.41878 22.417C6.44897 22.0887 4.93693 20.4919 4.7164 18.5071L4.64306 17.8471C4.59466 17.4115 4.56965 17.1864 4.54676 16.9615C4.21098 13.6623 4.21098 10.3376 4.54676 7.03845C4.56965 6.81353 4.59464 6.5886 4.64306 6.15289L4.7164 5.49281C4.93693 3.50804 6.44897 1.91127 8.41878 1.58297ZM11.2495 16.375C11.0872 16.4561 10.9557 16.5877 10.8745 16.75C10.6384 17.2221 10.6384 17.7779 10.8745 18.25C10.9557 18.4123 11.0872 18.5439 11.2495 18.625C11.7216 18.8611 12.2774 18.8611 12.7495 18.625C12.9118 18.5439 13.0434 18.4123 13.1245 18.25C13.3606 17.7779 13.3606 17.2221 13.1245 16.75C13.0434 16.5877 12.9118 16.4561 12.7495 16.375C12.2774 16.1389 11.7216 16.1389 11.2495 16.375Z" fill="#676C75"/>
</svg>
